<?xml version="1.0" encoding="UTF-8"?>
<svg xmlns="http://www.w3.org/2000/svg" xmlns:xlink="http://www.w3.org/1999/xlink" width="2234px" height="1080px" viewBox="0 0 2234 1080" version="1.1">
<g id="surface1">
<path style=" stroke:none;fill-rule:nonzero;fill:rgb(100%,98.039216%,44.705882%);fill-opacity:1;" d="M 1367.519531 64.003906 C 1314.105469 178.9375 1324.207031 250.996094 1397.816406 280.179688 C 1508.238281 323.953125 1770.796875 341.460938 1880.546875 436.417969 C 1990.292969 531.371094 2324.921875 457.964844 2382.148438 294.992188 C 2439.378906 132.019531 2542.421875 -119.171875 1999.074219 -119.171875 C 1636.835938 -119.171875 1426.324219 -58.113281 1367.519531 64.003906 Z M 1367.519531 64.003906 "/>
<path style=" stroke:none;fill-rule:nonzero;fill:rgb(5.882353%,13.333333%,36.862745%);fill-opacity:1;" d="M 581.496094 290.933594 C 617.695312 612.75 762.441406 814.511719 1015.722656 896.222656 C 1395.648438 1018.789062 2159.109375 1067.8125 2619.878906 1333.691406 C 3080.632812 1599.5625 3898.953125 1394.023438 3795.796875 937.703125 C 3692.636719 481.382812 3575.167969 -221.957031 2053.792969 -221.957031 C 1039.53125 -221.957031 548.777344 -51 581.5 290.933594 Z M 581.496094 290.933594 "/>
<path style=" stroke:none;fill-rule:nonzero;fill:rgb(10.588235%,20.392157%,42.352941%);fill-opacity:1;" d="M 640.449219 272.023438 C 657.417969 576.597656 783.570312 767.550781 1018.890625 844.886719 C 1371.878906 960.886719 2091.804688 1007.285156 2513.605469 1258.917969 C 2935.390625 1510.546875 3720.914062 1316.019531 3647.800781 884.144531 C 3574.6875 452.269531 3501.300781 -213.394531 2061.429688 -213.394531 C 1101.503906 -213.394531 627.855469 -51.589844 640.453125 272.023438 Z M 640.449219 272.023438 "/>
<path style=" stroke:none;fill-rule:nonzero;fill:rgb(15.294118%,27.058824%,47.843137%);fill-opacity:1;" d="M 700.894531 253.109375 C 701.316406 540.445312 810.554688 720.59375 1028.597656 793.546875 C 1355.667969 902.980469 2032.46875 946.753906 2417.515625 1184.144531 C 2802.550781 1421.53125 3553.566406 1238.015625 3506.691406 830.585938 C 3459.820312 423.15625 3424.652344 -204.828125 2066.285156 -204.828125 C 1160.695312 -204.828125 705.574219 -52.183594 700.898438 253.109375 Z M 700.894531 253.109375 "/>
<path style=" stroke:none;fill-rule:nonzero;fill:rgb(20%,34.117647%,53.333333%);fill-opacity:1;" d="M 762.707031 234.199219 C 749.035156 504.296875 842.898438 673.632812 1044.289062 742.210938 C 1346.378906 845.078125 1980.429688 886.226562 2330.75 1109.371094 C 2681.058594 1332.515625 3396 1160.011719 3371.886719 777.027344 C 3347.773438 394.042969 3345.460938 -196.261719 2068.59375 -196.261719 C 1217.339844 -196.261719 782.050781 -52.777344 762.710938 234.199219 Z M 762.707031 234.199219 "/>
<path style=" stroke:none;fill-rule:nonzero;fill:rgb(24.705882%,40.784314%,58.823529%);fill-opacity:1;" d="M 825.78125 215.289062 C 800.277344 468.144531 880.1875 626.671875 1065.5 690.875 C 1343.46875 787.175781 1935.113281 825.695312 2252.578125 1034.601562 C 2570.035156 1243.5 3247.453125 1082.003906 3242.890625 723.464844 C 3238.324219 364.929688 3263.921875 -187.695312 2068.554688 -187.695312 C 1271.636719 -187.695312 857.386719 -53.371094 825.785156 215.289062 Z M 825.78125 215.289062 "/>
<path style=" stroke:none;fill-rule:nonzero;fill:rgb(29.411765%,47.843137%,64.705882%);fill-opacity:1;" d="M 890.023438 196.378906 C 854.796875 431.992188 922.070312 579.714844 1091.832031 639.539062 C 1346.484375 729.273438 1896.042969 765.167969 2182.390625 959.828125 C 2468.730469 1154.484375 3107.285156 1004 3119.289062 669.90625 C 3131.292969 335.816406 3180.199219 -179.132812 2066.335938 -179.132812 C 1323.753906 -179.132812 931.65625 -53.964844 890.027344 196.378906 Z M 890.023438 196.378906 "/>
<path style=" stroke:none;fill-rule:nonzero;fill:rgb(33.72549%,54.509804%,70.196078%);fill-opacity:1;" d="M 955.363281 177.46875 C 912.375 395.84375 968.246094 532.753906 1122.960938 588.199219 C 1355.042969 671.371094 1862.816406 704.636719 2119.671875 885.054688 C 2376.515625 1065.46875 2974.949219 925.996094 3000.734375 616.347656 C 3026.519531 306.703125 3094.441406 -170.566406 2062.078125 -170.566406 C 1373.832031 -170.566406 1004.933594 -54.558594 955.367188 177.46875 Z M 955.363281 177.46875 "/>
<path style=" stroke:none;fill-rule:nonzero;fill:rgb(38.431373%,61.176471%,75.686275%);fill-opacity:1;" d="M 1021.734375 158.558594 C 972.839844 359.691406 1018.464844 485.792969 1158.605469 536.863281 C 1368.824219 613.46875 1835.089844 644.109375 2063.984375 810.28125 C 2292.867188 976.453125 2849.996094 847.988281 2886.933594 562.789062 C 2923.871094 277.589844 3006.761719 -162 2055.902344 -162 C 1421.988281 -162 1077.273438 -55.148438 1021.738281 158.558594 Z M 1021.734375 158.558594 "/>
<path style=" stroke:none;fill-rule:nonzero;fill:rgb(43.137255%,68.235294%,81.176471%);fill-opacity:1;" d="M 1089.082031 139.644531 C 1036.039062 323.542969 1072.523438 438.835938 1198.535156 485.527344 C 1387.554688 555.5625 1812.589844 583.578125 2014.96875 735.507812 C 2217.34375 887.433594 2732.046875 769.984375 2777.644531 509.230469 C 2823.246094 248.472656 2917.257812 -153.433594 2047.902344 -153.433594 C 1468.324219 -153.433594 1148.726562 -55.742188 1089.085938 139.644531 Z M 1089.082031 139.644531 "/>
<path style=" stroke:none;fill-rule:nonzero;fill:rgb(47.843137%,74.901961%,86.666667%);fill-opacity:1;" d="M 1157.367188 120.734375 C 1101.851562 287.390625 1130.25 391.875 1242.558594 434.1875 C 1411.023438 497.660156 1795.074219 523.050781 1972.332031 660.734375 C 2149.585938 798.417969 2620.789062 691.980469 2672.667969 455.671875 C 2724.546875 219.359375 2826.015625 -144.867188 2038.160156 -144.867188 C 1512.917969 -144.867188 1219.328125 -56.335938 1157.371094 120.734375 Z M 1157.367188 120.734375 "/>
<path style=" stroke:none;fill-rule:nonzero;fill:rgb(52.54902%,81.960784%,92.156863%);fill-opacity:1;" d="M 1226.550781 101.824219 C 1170.183594 251.238281 1191.507812 344.914062 1290.523438 382.851562 C 1439.046875 439.757812 1782.363281 462.519531 1935.835938 585.960938 C 2089.300781 709.402344 2515.972656 613.976562 2571.839844 402.109375 C 2627.703125 190.246094 2733.09375 -136.304688 2026.742188 -136.304688 C 1555.835938 -136.304688 1289.113281 -56.929688 1226.554688 101.824219 Z M 1226.550781 101.824219 "/>
<path style=" stroke:none;fill-rule:nonzero;fill:rgb(57.254902%,88.627451%,97.647059%);fill-opacity:1;" d="M 1296.609375 82.914062 C 1240.953125 215.089844 1256.1875 297.957031 1342.304688 331.515625 C 1471.488281 381.855469 1774.308594 401.988281 1905.285156 511.191406 C 2036.257812 620.386719 2417.398438 535.96875 2475.03125 348.550781 C 2532.664062 161.132812 2638.550781 -127.738281 2013.699219 -127.738281 C 1597.128906 -127.738281 1358.105469 -57.523438 1296.613281 82.914062 Z M 1296.609375 82.914062 "/>
</g>
</svg>
